<svg id="visual" viewBox="0 0 900 600" width="900" height="600" xmlns="http://www.w3.org/2000/svg" xmlns:xlink="http://www.w3.org/1999/xlink" version="1.1"><rect width="900" height="600" fill="#001829"></rect><g><g transform="translate(260 172)"><path d="M0 -37.4L20.2 -31.5L34 -15.5L37 5.3L28.3 24.5L10.5 35.9L-10.5 35.9L-28.3 24.5L-37 5.3L-34 -15.5L-20.2 -31.5Z" fill="#faed26"></path></g><g transform="translate(458 89)"><path d="M0 -13L7 -10.9L11.8 -5.4L12.9 1.9L9.8 8.5L3.7 12.5L-3.7 12.5L-9.8 8.5L-12.9 1.9L-11.8 -5.4L-7 -10.9Z" fill="#faed26"></path></g><g transform="translate(740 127)"><path d="M0 -16L8.7 -13.5L14.6 -6.6L15.8 2.3L12.1 10.5L4.5 15.4L-4.5 15.4L-12.1 10.5L-15.8 2.3L-14.6 -6.6L-8.7 -13.5Z" fill="#faed26"></path></g><g transform="translate(740 356)"><path d="M0 -36L19.5 -30.3L32.7 -15L35.6 5.1L27.2 23.6L10.1 34.5L-10.1 34.5L-27.2 23.6L-35.6 5.1L-32.7 -15L-19.5 -30.3Z" fill="#faed26"></path></g><g transform="translate(719 12)"><path d="M0 -27L14.6 -22.7L24.6 -11.2L26.7 3.8L20.4 17.7L7.6 25.9L-7.6 25.9L-20.4 17.7L-26.7 3.8L-24.6 -11.2L-14.6 -22.7Z" fill="#faed26"></path></g><g transform="translate(802 437)"><path d="M0 -7L3.8 -5.9L6.4 -2.9L6.9 1L5.3 4.6L2 6.7L-2 6.7L-5.3 4.6L-6.9 1L-6.4 -2.9L-3.8 -5.9Z" fill="#faed26"></path></g><g transform="translate(190 562)"><path d="M0 -27L14.6 -22.7L24.6 -11.2L26.7 3.8L20.4 17.7L7.6 25.9L-7.6 25.9L-20.4 17.7L-26.7 3.8L-24.6 -11.2L-14.6 -22.7Z" fill="#faed26"></path></g><g transform="translate(654 106)"><path d="M0 -22L11.9 -18.5L20 -9.1L21.8 3.1L16.6 14.4L6.2 21.1L-6.2 21.1L-16.6 14.4L-21.8 3.1L-20 -9.1L-11.9 -18.5Z" fill="#faed26"></path></g><g transform="translate(140 240)"><path d="M0 -18L9.7 -15.1L16.4 -7.5L17.8 2.6L13.6 11.8L5.1 17.3L-5.1 17.3L-13.6 11.8L-17.8 2.6L-16.4 -7.5L-9.7 -15.1Z" fill="#faed26"></path></g><g transform="translate(876 366)"><path d="M0 -4L2.2 -3.4L3.6 -1.7L4 0.6L3 2.6L1.1 3.8L-1.1 3.8L-3 2.6L-4 0.6L-3.6 -1.7L-2.2 -3.4Z" fill="#faed26"></path></g><g transform="translate(556 268)"><path d="M0 -11L5.9 -9.3L10 -4.6L10.9 1.6L8.3 7.2L3.1 10.6L-3.1 10.6L-8.3 7.2L-10.9 1.6L-10 -4.6L-5.9 -9.3Z" fill="#faed26"></path></g><g transform="translate(359 48)"><path d="M0 -20L10.8 -16.8L18.2 -8.3L19.8 2.8L15.1 13.1L5.6 19.2L-5.6 19.2L-15.1 13.1L-19.8 2.8L-18.2 -8.3L-10.8 -16.8Z" fill="#faed26"></path></g><g transform="translate(35 154)"><path d="M0 -16L8.7 -13.5L14.6 -6.6L15.8 2.3L12.1 10.5L4.5 15.4L-4.5 15.4L-12.1 10.5L-15.8 2.3L-14.6 -6.6L-8.7 -13.5Z" fill="#faed26"></path></g><g transform="translate(287 509)"><path d="M0 -17L9.2 -14.3L15.5 -7.1L16.8 2.4L12.8 11.1L4.8 16.3L-4.8 16.3L-12.8 11.1L-16.8 2.4L-15.5 -7.1L-9.2 -14.3Z" fill="#faed26"></path></g><g transform="translate(221 462)"><path d="M0 -17L9.2 -14.3L15.5 -7.1L16.8 2.4L12.8 11.1L4.8 16.3L-4.8 16.3L-12.8 11.1L-16.8 2.4L-15.5 -7.1L-9.2 -14.3Z" fill="#faed26"></path></g><g transform="translate(701 478)"><path d="M0 -18L9.7 -15.1L16.4 -7.5L17.8 2.6L13.6 11.8L5.1 17.3L-5.1 17.3L-13.6 11.8L-17.8 2.6L-16.4 -7.5L-9.7 -15.1Z" fill="#faed26"></path></g><g transform="translate(98 499)"><path d="M0 -23L12.4 -19.3L20.9 -9.6L22.8 3.3L17.4 15.1L6.5 22.1L-6.5 22.1L-17.4 15.1L-22.8 3.3L-20.9 -9.6L-12.4 -19.3Z" fill="#faed26"></path></g><g transform="translate(894 130)"><path d="M0 -34L18.4 -28.6L30.9 -14.1L33.7 4.8L25.7 22.3L9.6 32.6L-9.6 32.6L-25.7 22.3L-33.7 4.8L-30.9 -14.1L-18.4 -28.6Z" fill="#faed26"></path></g><g transform="translate(309 389)"><path d="M0 -8L4.3 -6.7L7.3 -3.3L7.9 1.1L6 5.2L2.3 7.7L-2.3 7.7L-6 5.2L-7.9 1.1L-7.3 -3.3L-4.3 -6.7Z" fill="#faed26"></path></g><g transform="translate(427 438)"><path d="M0 -27L14.6 -22.7L24.6 -11.2L26.7 3.8L20.4 17.7L7.6 25.9L-7.6 25.9L-20.4 17.7L-26.7 3.8L-24.6 -11.2L-14.6 -22.7Z" fill="#faed26"></path></g></g></svg>